<svg xmlns="http://www.w3.org/2000/svg" version="1.1" xmlns:xlink="http://www.w3.org/1999/xlink" xmlns:svgjs="http://svgjs.dev/svgjs" width="1440" height="560" preserveAspectRatio="none" viewBox="0 0 1440 560"><g mask="url(&quot;#SvgjsMask6983&quot;)" fill="none"><rect width="1440" height="560" x="0" y="0" fill="url(&quot;#SvgjsLinearGradient6984&quot;)"></rect><path d="M760.91 454.71 L807.79 391.60999999999996L824.9496175581457 463.75961755814575z" fill="rgba(242, 193, 23, 1)"></path><rect width="60" height="60" clip-path="url(&quot;#SvgjsClipPath6985&quot;)" x="99.5" y="325.59" fill="url(&quot;#SvgjsPattern6986&quot;)" transform="rotate(252.52, 129.5, 355.59)"></rect><rect width="240.24" height="240.24" clip-path="url(&quot;#SvgjsClipPath6987&quot;)" x="1116.9" y="389.71" fill="url(&quot;#SvgjsPattern6988&quot;)" transform="rotate(313.34, 1237.02, 509.83)"></rect><rect width="366" height="366" clip-path="url(&quot;#SvgjsClipPath6989&quot;)" x="114.01" y="118.88" fill="url(&quot;#SvgjsPattern6990&quot;)" transform="rotate(203.64, 297.01, 301.88)"></rect><rect width="240" height="240" clip-path="url(&quot;#SvgjsClipPath6991&quot;)" x="255.62" y="29.31" fill="url(&quot;#SvgjsPattern6992&quot;)" transform="rotate(232.55, 375.62, 149.31)"></rect><rect width="360" height="360" clip-path="url(&quot;#SvgjsClipPath6993&quot;)" x="-168.18" y="158.21" fill="url(&quot;#SvgjsPattern6994&quot;)" transform="rotate(194.23, 11.82, 338.21)"></rect><rect width="136.2" height="136.2" clip-path="url(&quot;#SvgjsClipPath6995&quot;)" x="725.55" y="287.87" fill="url(&quot;#SvgjsPattern6996&quot;)" transform="rotate(146.88, 793.65, 355.97)"></rect><path d="M725.79 50.21L736.92 43.87 745.55 53.33 756.67 46.99 765.3 56.45 776.43 50.11 785.06 59.57M724.54 58.12L735.67 51.77 744.3 61.23 755.42 54.89 764.05 64.35 775.18 58.01 783.81 67.47" stroke="rgba(247, 245, 0, 1)" stroke-width="1.42" stroke-dasharray="4, 4"></path><path d="M675.99 398.04999999999995 L538.08 321.45L521.2208100179178 445.5641899820823z" stroke="rgba(247, 245, 0, 1)" stroke-width="2.98" stroke-dasharray="3, 3"></path><path d="M656.12 173.8L651.67 161.79 662.41 154.81 657.95 142.8 668.69 135.82 664.24 123.81 674.97 116.83M663.72 176.31L659.26 164.3 670 157.32 665.55 145.32 676.28 138.34 671.83 126.33 682.57 119.35M671.31 178.82L666.86 166.82 677.6 159.84 673.14 147.83 683.88 140.85 679.43 128.84 690.16 121.86" stroke="rgba(66, 111, 225, 1)" stroke-width="1" stroke-dasharray="3, 3"></path><rect width="109.6" height="109.6" clip-path="url(&quot;#SvgjsClipPath6997&quot;)" x="676.72" y="390.28" fill="url(&quot;#SvgjsPattern6998&quot;)" transform="rotate(78.87, 731.52, 445.08)"></rect><path d="M331.58000000000004 606.63 L391.5 543.61L315.3414548131156 528.9214548131156z" fill="rgba(66, 111, 225, 1)"></path></g><defs><mask id="SvgjsMask6983"><rect width="1440" height="560" fill="#ffffff"></rect></mask><linearGradient x1="50%" y1="0%" x2="50%" y2="100%" gradientUnits="userSpaceOnUse" id="SvgjsLinearGradient6984"><stop stop-color="rgba(0, 18, 41, 1)" offset="0"></stop><stop stop-color="rgba(4, 39, 84, 1)" offset="0.11"></stop><stop stop-color="rgba(7, 76, 165, 1)" offset="0.29"></stop><stop stop-color="rgba(0, 70, 160, 1)" offset="1"></stop></linearGradient><pattern x="0" y="0" width="6" height="6" patternUnits="userSpaceOnUse" id="SvgjsPattern6986"><path d="M0 6L3 0L6 6" stroke="rgba(242, 193, 23, 1)" fill="none"></path></pattern><clipPath id="SvgjsClipPath6985"><circle r="15" cx="129.5" cy="355.59"></circle></clipPath><pattern x="0" y="0" width="9.24" height="9.24" patternUnits="userSpaceOnUse" id="SvgjsPattern6988"><path d="M0 9.24L4.62 0L9.24 9.24" stroke="rgba(247, 245, 0, 1)" fill="none"></path></pattern><clipPath id="SvgjsClipPath6987"><circle r="60.06" cx="1237.02" cy="509.83"></circle></clipPath><pattern x="0" y="0" width="366" height="6.1" patternUnits="userSpaceOnUse" id="SvgjsPattern6990"><rect width="366" height="3.05" x="0" y="0" fill="rgba(66, 111, 225, 1)"></rect><rect width="366" height="3.05" x="0" y="3.05" fill="rgba(0, 0, 0, 0)"></rect></pattern><clipPath id="SvgjsClipPath6989"><circle r="91.5" cx="297.01" cy="301.88"></circle></clipPath><pattern x="0" y="0" width="6" height="6" patternUnits="userSpaceOnUse" id="SvgjsPattern6992"><path d="M3 1L3 5M1 3L5 3" stroke="rgba(242, 193, 23, 1)" fill="none" stroke-width="1"></path></pattern><clipPath id="SvgjsClipPath6991"><circle r="60" cx="375.62" cy="149.31"></circle></clipPath><pattern x="0" y="0" width="6" height="6" patternUnits="userSpaceOnUse" id="SvgjsPattern6994"><path d="M0 6L3 0L6 6" stroke="rgba(66, 111, 225, 1)" fill="none"></path></pattern><clipPath id="SvgjsClipPath6993"><circle r="90" cx="11.82" cy="338.21"></circle></clipPath><pattern x="0" y="0" width="136.2" height="13.62" patternUnits="userSpaceOnUse" id="SvgjsPattern6996"><rect width="136.2" height="6.81" x="0" y="0" fill="rgba(242, 193, 23, 1)"></rect><rect width="136.2" height="6.81" x="0" y="6.81" fill="rgba(0, 0, 0, 0)"></rect></pattern><clipPath id="SvgjsClipPath6995"><circle r="34.05" cx="793.65" cy="355.97"></circle></clipPath><pattern x="0" y="0" width="10.96" height="10.96" patternUnits="userSpaceOnUse" id="SvgjsPattern6998"><path d="M5.48 1L5.48 9.96M1 5.48L9.96 5.48" stroke="rgba(242, 193, 23, 1)" fill="none" stroke-width="3.71"></path></pattern><clipPath id="SvgjsClipPath6997"><circle r="27.4" cx="731.52" cy="445.08"></circle></clipPath></defs></svg>